<?xml version="1.0" encoding="UTF-8"?>
<svg width="512" height="512" viewBox="0 0 512 512" fill="none" xmlns="http://www.w3.org/2000/svg">
  <!-- Gradient Background -->
  <defs>
    <linearGradient id="grad1" x1="0%" y1="0%" x2="100%" y2="100%">
      <stop offset="0%" style="stop-color:#34C759;stop-opacity:1" />
      <stop offset="100%" style="stop-color:#30D158;stop-opacity:1" />
    </linearGradient>
  </defs>
  
  <!-- Background Circle -->
  <circle cx="256" cy="256" r="256" fill="url(#grad1)"/>
  
  <!-- Arabic Letter ع (Ain) -->
  <path d="M256 128C309 128 352 171 352 224C352 277 309 320 256 320C203 320 160 277 160 224C160 171 203 128 256 128ZM256 160C221 160 192 189 192 224C192 259 221 288 256 288C291 288 320 259 320 224C320 189 291 160 256 160Z" 
        fill="white"/>
  
  <!-- Decorative Elements -->
  <circle cx="256" cy="224" r="32" fill="white" opacity="0.6"/>
  <path d="M208 352H304C330.5 352 352 373.5 352 400V416H160V400C160 373.5 181.5 352 208 352Z" 
        fill="white" opacity="0.8"/>
</svg>
